<?xml version="1.0"?><svg width="410.96" height="260.202" xmlns="http://www.w3.org/2000/svg" xmlns:xlink="http://www.w3.org/1999/xlink">
 <title>bird flight</title>
 <defs>
  <symbol id="svg_6" height="415.33957" width="284.81235">

   <metadata id="svg_5">image/svg+xml</metadata>
   <g transform="translate(-93.4734, -145.607)" id="svg_3">
    <path fill="black" id="svg_4" d="m168.913559,560.295471c-0.962494,-3.06543 -1.790863,-7.063843 -5.101715,-24.625671c-1.886368,-10.005859 -4.558685,-21.480835 -5.938507,-25.500031c-2.22673,-6.486115 -2.946472,-9.695435 -3.904724,-17.411377c-0.143692,-1.157074 -1.009308,-3.245453 -1.923599,-4.640808c-0.914276,-1.395386 -2.610687,-5.623688 -3.769791,-9.39621c-1.159088,-3.772583 -2.969589,-9.559204 -4.0233,-12.859192c-3.380035,-10.585571 -4.964478,-21.459381 -4.545578,-31.195923c0.46283,-10.757507 2.411087,-15.186005 11.027161,-25.065369c2.917679,-3.345459 6.188156,-7.355255 7.2677,-8.910675c2.332458,-3.360565 9.2845,-20.397339 9.2845,-22.752686c0,-1.743958 -5.989563,-4.764496 -12.039871,-6.071747c-1.903076,-0.411163 -9.31012,-2.714539 -16.460129,-5.118591c-14.111732,-4.744843 -18.128128,-5.13208 -35.499992,-3.422852c-5.304771,0.521942 -8.875916,0.472992 -9.5,-0.130249c-1.412956,-1.365692 2.24379,-3.86145 5.441124,-3.713623c2.447693,0.11319 2.432114,0.145782 -0.358635,0.75c-1.604622,0.347443 -3.074631,1.104218 -3.266685,1.681763c-0.239365,0.719818 3.9804,0.655579 13.417503,-0.204315c7.571678,-0.689911 14.64019,-1.274933 15.707817,-1.300049c1.921501,-0.045227 1.921501,-0.060547 0,-1.513885c-1.067627,-0.807526 -3.29113,-1.523102 -4.941124,-1.590179l-3,-0.122009l3,-0.889893c1.649994,-0.48941 4.574997,-2.285767 6.5,-3.991882c6.03904,-5.352386 10.212135,-6.575012 24.590889,-7.204742c17.883972,-0.783203 21.615784,-2.419098 27.906433,-12.233093c6.598862,-10.294861 11.436752,-22.94696 13.497421,-35.298645c4.04747,-24.260529 5.644821,-48.025574 4.147186,-61.70137c-0.80304,-7.33313 -0.722244,-9.410202 0.436249,-11.214813c0.781998,-1.218155 1.423492,-3.018158 1.425552,-4c0.009827,-4.689377 10.183563,-14.355759 30.496262,-28.975433c6.407593,-4.61174 24.500519,-14.309753 26.696732,-14.309753c0.508957,0 4.835403,-1.850372 9.614304,-4.111954c4.778931,-2.261566 13.863983,-5.829681 20.188965,-7.929153c6.325012,-2.099472 14.649994,-5.022263 18.5,-6.495087c8.173492,-3.126801 19.360229,-6.614502 32,-9.97673c4.950012,-1.316696 10.012512,-2.692429 11.25,-3.057175c3.160248,-0.931442 2.984924,1.858536 -0.25,3.978134c-1.375,0.90094 -2.5,2.2798 -2.5,3.064133c0,0.784332 -1.6875,2.674316 -3.75,4.199982c-2.0625,1.52565 -5.39035,4.361069 -7.395233,6.300888c-2.004883,1.939835 -7.179871,6.535858 -11.5,10.213409c-4.320129,3.677551 -13.546356,11.552551 -20.502747,17.5c-16.629639,14.217743 -31.496063,25.444946 -41.277161,31.172653c-9.822433,5.751938 -11.910217,8.389282 -11.735443,14.824539c0.071945,2.648987 0.371201,19.666351 0.665054,37.816376c0.504639,31.169952 0.416748,33.499084 -1.584763,42c-2.276749,9.669952 -2.804718,16.003296 -1.555542,18.659637c0.565536,1.202576 0.209763,1.84082 -1.29184,2.317413c-3.198349,1.015106 -2.462067,2.365356 1.677673,3.07663c2.0625,0.35437 8.25,1.894867 13.75,3.423309c18.025146,5.009216 33.743347,6.212585 53.5,4.095917c4.675018,-0.500854 14.575012,-1.187531 22,-1.52594c12.282074,-0.559784 17.307373,-0.989197 36.75,-3.140381c4.491852,-0.496979 6.25,-0.363159 6.25,0.475677c0,1.932892 -3.763977,2.784424 -20,4.52475c-8.524994,0.913788 -21.350006,2.345093 -28.5,3.180664c-43.074219,5.033813 -40.5,4.562103 -40.5,7.421478c0,1.103638 1.179474,2.20636 3.061798,2.862518c6.675385,2.327057 58.577087,6.235626 71.971161,5.419952c7.042053,-0.428864 8.765259,-0.239716 9.86261,1.08252c1.123871,1.354187 1.070831,1.701508 -0.342712,2.243927c-2.208771,0.847595 -51.99823,-0.234344 -71.052856,-1.544006c-8.25,-0.567017 -18.484772,-1.264404 -22.743927,-1.549774c-8.423096,-0.564301 -15.873871,0.238708 -34.113663,3.676544c-10.18721,1.920105 -11.974609,2.542725 -12.688309,4.419891c-0.456909,1.201752 -1.275482,2.459839 -1.819061,2.795807c-0.543594,0.335968 -3.077744,4.092163 -5.631439,8.347137c-2.553711,4.254974 -6.429016,10.211304 -8.611786,13.236328c-2.182785,3.024994 -6.281219,8.875 -9.107651,13c-2.826431,4.125 -8.698837,12.198151 -13.04982,17.940369l-7.910843,10.440399l0.710632,16.559601c1.523331,35.497223 0.470215,45.643005 -8.492126,81.814331c-2.810699,11.343811 -9.262787,23.845459 -10.414154,20.178589zm-23.080994,-197.713593l-2.847092,-2.719696l2.259201,3.307556c1.242569,1.819183 2.523758,3.04303 2.847092,2.719696c0.323334,-0.323334 -0.693314,-1.811737 -2.259201,-3.307556zm-3.052399,-0.22583c-0.99855,-1.103394 -2.03241,-1.789246 -2.297501,-1.52417c-0.671921,0.671936 1.82222,3.530304 3.080475,3.530304c0.567902,0 0.215561,-0.902771 -0.782974,-2.006134zm7.005539,0.006134c-0.995483,-1.100006 -2.259979,-2 -2.809982,-2c-0.549988,0 -0.185501,0.899994 0.809982,2c0.995483,1.099976 2.259979,2 2.809967,2c0.550003,0 0.185516,-0.900024 -0.809967,-2zm3.286392,-0.19519c-0.801651,-1.207367 -2.094055,-2.394104 -2.871979,-2.637207c-0.777924,-0.243073 -0.323471,0.744751 1.009903,2.19519c2.949127,3.208099 3.838928,3.419281 1.862076,0.442017zm3.786606,-0.326294c-2.055069,-1.554749 -3.203461,-1.307648 -2.11412,0.454956c0.362534,0.586578 1.42009,1.052216 2.350143,1.034729c1.48465,-0.027954 1.455841,-0.209717 -0.236023,-1.489685zm-26.572998,0.143921c0,-0.207672 -0.787491,-0.995148 -1.75,-1.75c-1.586052,-1.243866 -1.621422,-1.208496 -0.377548,0.377563c1.306366,1.665741 2.127548,2.195465 2.127548,1.372437zm-25.499992,-3.569458c3.040367,-0.827362 12.182449,-1.368774 11.416656,-0.676117c-0.229156,0.207245 -3.566658,0.627869 -7.416656,0.934662c-4.415504,0.351837 -5.892365,0.256378 -4,-0.258545z"/>
   </g>
  </symbol>
  <symbol width="276.488" viewBox="0 0 276.488 415.835" id="svg_17" height="415.835">

   <g id="svg_9">
    <path fill-rule="evenodd" clip-rule="evenodd" id="svg_16" d="m22.636999,28.506001c4.843,13.105 13.583002,18.121998 11.341002,32.993999c-2.536001,16.818001 -5.323,29.709999 -0.014,46.822998c10.966999,35.352005 45.660999,50.360001 74.324001,67.682999c15.216995,9.195999 26.528999,22.356003 37.943001,35.707001c12.265991,14.347 26.783997,27.51001 36.365997,43.865005c9.423004,16.083008 15.429993,34.244995 23.546997,51.009003c9.341995,19.294006 18.257996,38.265991 24.048996,58.970001c4.453003,15.919983 6.174011,32.289001 5.983002,48.777985c4.883011,-18.100006 -7.985001,-44.513977 -12.330994,-61.764984c-6.709,-26.638 -13.419006,-53.273987 -20.128998,-79.912018c23.987,36.875 47.973999,73.75 71.960999,110.625c-9.786987,-25.703979 -29.193008,-45.250977 -43.412003,-68.315002c-15.164001,-24.597992 -25.233002,-52.439972 -38.718994,-78.020996c18.37999,23.104004 40.145996,41.96402 62.57399,60.940002c-0.139999,-4.666992 2.292999,-9.446991 0.391998,-13.585999c-2.03299,-4.425018 -8.132996,-6.833008 -10.557999,-11.64502c-8.194,-16.254974 -14.126999,-28.36499 -26.131989,-42.829987c-25.379013,-30.580002 -51.587006,-57.378998 -68.313004,-93.901001c-8.296997,-18.117996 -16.38501,-36.325996 -26.011002,-53.782997c-9.495003,-17.218002 -21.330002,-31.070999 -31.682999,-47.426003c-8.495003,-13.419989 -13.049004,-22.216989 -26.399002,-31.051988c-9.333,-6.177 -31.261002,-3.595 -39.306,3.882c-3.709002,3.447 -4.400002,10.409999 -7.822001,13.197999c-4.955,4.037001 -15.178,0.837 -19.945,5.821001c6.942,2.362999 15.027,1.653 22.293999,1.941"/>
    <path fill="none" stroke="#000000" stroke-width="0.3806" stroke-linecap="square" stroke-miterlimit="10" id="svg_15" d="m22.636999,28.506001c4.843,13.105 13.583002,18.121998 11.341002,32.993999c-2.536001,16.818001 -5.323,29.709999 -0.014,46.822998c10.966999,35.352005 45.660999,50.360001 74.324001,67.682999c15.216995,9.195999 26.528999,22.356003 37.943001,35.707001c12.265991,14.347 26.783997,27.51001 36.365997,43.865005c9.423004,16.083008 15.429993,34.244995 23.546997,51.009003c9.341995,19.294006 18.257996,38.265991 24.048996,58.970001c4.453003,15.919983 6.174011,32.289001 5.983002,48.777985c4.883011,-18.100006 -7.985001,-44.513977 -12.330994,-61.764984c-6.709,-26.638 -13.419006,-53.273987 -20.128998,-79.912018c23.987,36.875 47.973999,73.75 71.960999,110.625c-9.786987,-25.703979 -29.193008,-45.250977 -43.412003,-68.315002c-15.164001,-24.597992 -25.233002,-52.439972 -38.718994,-78.020996c18.37999,23.104004 40.145996,41.96402 62.57399,60.940002c-0.139999,-4.666992 2.292999,-9.446991 0.391998,-13.585999c-2.03299,-4.425018 -8.132996,-6.833008 -10.557999,-11.64502c-8.194,-16.254974 -14.126999,-28.36499 -26.131989,-42.829987c-25.379013,-30.580002 -51.587006,-57.378998 -68.313004,-93.901001c-8.296997,-18.117996 -16.38501,-36.325996 -26.011002,-53.782997c-9.495003,-17.218002 -21.330002,-31.070999 -31.682999,-47.426003c-8.495003,-13.419989 -13.049004,-22.216989 -26.399002,-31.051988c-9.700001,-6.419 -30.804001,-3.251 -39.306,3.882c-0.814001,0.683 -1.638,1.536 -2.346001,2.329"/>
    <path fill="none" stroke="#000000" stroke-width="0.3806" stroke-linecap="square" stroke-miterlimit="10" id="svg_14" d="m25.764999,9.875c-1.876999,3.11 -3.65,10.941 -7.285999,11.457001c-5.857,0.831999 -14.238,1.158998 -18.135,5.233c6.941,2.362 15.026,1.653 22.292999,1.939999"/>
    <path fill-rule="evenodd" clip-rule="evenodd" id="svg_13" d="m67.220001,196.578003c4.464996,-2.399002 8.923996,-4.844009 13.688995,-6.598007c-1.389,0.362 -4.081993,1.969009 -5.084999,2.32901c-0.405998,-0.156006 0.789001,-0.800003 0.392006,-0.777008c0.399994,1.619995 0.884995,3.714005 1.173996,6.210999c4.851997,-10.431992 4.030998,-10.429001 15.251999,-9.315002c9.143005,0.907013 11.701004,2.294006 19.556999,7.375c-3.950996,-9.077988 -10.877998,-10.972992 -19.556999,-6.987991c2.663002,-8.725998 13.926003,-10.875 21.901001,-11.643997c-9.523003,-4.508011 -17.551003,5.937988 -26.006996,8.733002c-7.808006,2.581985 -17.133003,2.470993 -21.316002,10.673996"/>
    <path fill="none" stroke="#000000" stroke-width="0.3806" stroke-linecap="square" stroke-miterlimit="10" id="svg_12" d="m67.220001,196.578003c4.464996,-2.399002 8.923996,-4.844009 13.688995,-6.598007c-1.389,0.362 -4.081993,1.969009 -5.084999,2.32901c-0.405998,-0.156006 0.789001,-0.800003 0.392006,-0.777008c0.399994,1.619995 0.884995,3.714005 1.173996,6.210999c4.851997,-10.431992 4.030998,-10.429001 15.251999,-9.315002c9.143005,0.907013 11.701004,2.294006 19.556999,7.375c-3.950996,-9.077988 -10.877998,-10.972992 -19.556999,-6.987991c2.663002,-8.725998 13.926003,-10.875 21.901001,-11.643997c-9.523003,-4.508011 -17.551003,5.937988 -26.006996,8.733002c-7.808006,2.581985 -17.133003,2.470993 -21.316002,10.673996"/>
    <path fill-rule="evenodd" clip-rule="evenodd" id="svg_11" d="m67.220001,177.171005c4.512001,-2.427002 9.084,-4.73999 13.688995,-6.985992c-1.349998,0.330994 -3.640999,2.078003 -5.084999,2.716995c2.636002,0.792999 0.527,0.662003 1.565002,5.432999c4.944,-10.626999 3.970001,-10.438995 15.251999,-9.315002c8.735001,0.87001 12.123001,1.646011 19.556999,6.986008c-3.933998,-9.475006 -11.085999,-9.887009 -19.556999,-6.986008c3.064003,-8.546997 13.820999,-10.478989 21.901001,-11.256989c-8.756996,-4.901001 -18.301003,5.138 -26.006996,8.539993c-7.404007,3.268997 -17.530006,2.233994 -21.315002,10.867996"/>
    <path fill="none" stroke="#000000" stroke-width="0.3806" stroke-linecap="square" stroke-miterlimit="10" id="svg_10" d="m67.220001,177.171005c4.512001,-2.427002 9.084,-4.73999 13.688995,-6.985992c-1.349998,0.330994 -3.640999,2.078003 -5.084999,2.716995c2.636002,0.792999 0.527,0.662003 1.565002,5.432999c4.944,-10.626999 3.970001,-10.438995 15.251999,-9.315002c8.735001,0.87001 12.123001,1.646011 19.556999,6.986008c-3.933998,-9.475006 -11.085999,-9.887009 -19.556999,-6.986008c3.064003,-8.546997 13.820999,-10.478989 21.901001,-11.256989c-8.756996,-4.901001 -18.301003,5.138 -26.006996,8.539993c-7.404007,3.268997 -17.530006,2.233994 -21.315002,10.867996"/>
   </g>
  </symbol>
  <symbol id="svg_23" height="1052.362205" width="744.094488">

   <metadata id="svg_22">image/svg+xmlFlying birdFlying bird animal silhouette</metadata>
   <g id="svg_20">
    <path fill="#000000" id="svg_21" d="m335.692688,633.38324c-14.888428,-10.684387 -26.514771,-19.650635 -33.788513,-26.057678c-2.767944,-2.438171 -5.589844,-4.433472 -6.270905,-4.434082c-0.681061,-0.000549 -4.364746,-2.360779 -8.185944,-5.244873c-3.821198,-2.884155 -11.450989,-7.490417 -16.955048,-10.236206c-5.504089,-2.745789 -12.871429,-7.283508 -16.371887,-10.08374c-13.181381,-10.544739 -34.934875,-29.984497 -42.340607,-37.837219c-4.22522,-4.480225 -9.550369,-10.005737 -11.833649,-12.278931c-8.800278,-8.761169 -22.664398,-25.300293 -35.203232,-41.995453c-20.050369,-26.696564 -29.504242,-47.934143 -29.535767,-66.350403c-0.020203,-11.804565 23.395798,-49.423401 38.002518,-61.052795c9.784271,-7.789886 17.926849,-15.891998 17.926849,-17.837738c0,-0.96933 0.592346,-1.762421 1.31633,-1.762421c0.723969,0 1.955887,-1.195068 2.73761,-2.655701c1.260651,-2.35556 -0.08313,-3.702728 -11.889832,-11.919708c-30.917694,-21.517395 -59.987274,-48.898926 -67.306305,-63.397827c-2.597839,-5.146317 -9.0914,-13.024857 -19.300446,-23.416931l-15.385384,-15.661255l-6.028397,0.883057c-3.315643,0.485672 -6.267693,1.604431 -6.560135,2.48613c-0.292435,0.881699 2.561272,5.018463 6.341591,9.19281c3.780312,4.174362 8.678185,11.165222 10.884163,15.535233c4.376305,8.669434 6.737701,18.009399 4.553246,18.009399c-0.740074,0 -1.736015,-1.951996 -2.213158,-4.337769c-0.477158,-2.385742 -2.636978,-7.143829 -4.799606,-10.573486c-2.162636,-3.429672 -4.379906,-7.77063 -4.927277,-9.646576c-1.069099,-3.664093 -3.192307,-6.82431 -4.5802,-6.817261c-0.470886,0.00238 -0.871986,2.750259 -0.891319,6.106369c-0.019318,3.356125 -0.792641,6.859543 -1.718498,7.785385c-1.334915,1.334946 -1.501045,0.353394 -0.802635,-4.74205c1.035896,-7.557785 0.108673,-8.070969 -3.598137,-1.991364c-2.941673,4.824707 -3.722286,2.48938 -1.29866,-3.885239c0.90303,-2.375168 0.941612,-4.19519 0.106621,-5.030182c-0.719627,-0.719635 -1.027771,-2.03978 -0.684761,-2.933655c0.343025,-0.893875 -0.625877,-2.756058 -2.153088,-4.138168c-3.905678,-3.534576 -3.482578,-5.904037 2.006008,-11.234497c3.678596,-3.572601 4.597031,-5.385071 3.978203,-7.850662c-0.564957,-2.250946 -0.072868,-3.615158 1.652222,-4.580566c2.162109,-1.209991 2.238388,-1.78299 0.636009,-4.777069c-2.113403,-3.948914 -1.091408,-6.391006 2.674553,-6.391006c2.973877,0 2.950539,0.13237 1.39566,-7.910019l-1.133636,-5.863525l8.525375,-7.097549c10.236061,-8.521713 12.129921,-11.431152 14.389107,-22.105087c1.761383,-8.322052 4.07058,-13.030975 3.980827,-8.117737c-0.083229,4.556534 -3.568825,17.617813 -6.157204,23.072433c-1.359833,2.865601 -5.768387,8.586151 -9.796837,12.712311c-6.586853,6.746689 -7.230766,7.928589 -6.394318,11.736969l0.93013,4.234802l2.133133,-3.401031c1.173218,-1.87056 5.62394,-6.842407 9.89048,-11.048523c10.048927,-9.906616 11.119171,-11.701721 16.182487,-27.142746c5.666359,-17.280075 5.50235,-16.863937 6.322945,-16.04335c0.789749,0.789749 -5.465302,23.772278 -8.295113,30.47818c-0.975365,2.31131 -5.823662,8.968323 -10.77401,14.793365c-4.950348,5.825043 -9.000648,11.147827 -9.000648,11.8284c0,0.680603 1.850861,1.237442 4.112999,1.237442c5.282738,0 12.18808,-6.348541 17.807777,-16.371887c3.203072,-5.713043 4.00103,-6.527008 3.343704,-3.410812c-0.474861,2.251129 -3.130402,7.469681 -5.901222,11.596756c-6.38578,9.511475 -6.40052,9.550262 -3.628502,9.550262c1.275398,0 5.916397,-3.330643 10.313339,-7.401443c4.396942,-4.070786 9.244484,-7.798187 10.772293,-8.283096c2.637032,-0.83696 17.752548,-22.321609 17.752548,-25.232834c0,-0.757156 0.613937,-1.376648 1.364319,-1.376648c0.750381,0 1.364319,0.337463 1.364319,0.749908c0,3.282776 -15.918564,27.313156 -20.672348,31.206635c-1.76181,1.442978 -6.262489,5.280136 -10.00148,8.527008c-5.820641,5.05455 -7.684387,5.9104 -12.961067,5.951782c-3.389603,0.026596 -7.697762,0.925751 -9.573715,1.998138c-1.875931,1.072388 -5.221924,1.971558 -7.435555,1.998154c-6.62957,0.079605 -2.35421,2.516998 11.204277,6.387527l12.44149,3.551651l11.489731,-4.809692c17.275253,-7.231567 24.318192,-8.325867 41.605774,-6.464569c8.020065,0.86348 18.051743,2.379425 22.292633,3.368759c11.432068,2.666916 38.335129,13.366989 68.439987,27.220444c10.069489,4.633698 10.857758,4.788437 14.58197,2.862579c2.165375,-1.119751 10.019012,-7.718811 17.452576,-14.664581c7.433533,-6.945755 20.82489,-17.842789 29.758545,-24.215652c33.890015,-24.175522 38.075653,-25.309189 92.645111,-25.092926c47.988129,0.190186 56.235077,1.06662 120.060455,12.759247c12.006042,2.199493 29.810486,4.969482 39.565369,6.155579c9.754883,1.186096 20.345459,2.482864 23.534607,2.881714c3.59967,0.450211 5.79834,1.423492 5.79834,2.566788c0,2.470459 -7.546753,8.693375 -11.853699,9.774353c-5.901245,1.48111 -31.881958,-0.531723 -44.765747,-3.468201c-14.530029,-3.311691 -19.929321,-3.594177 -13.302124,-0.695969c2.736145,1.196564 4.434082,2.918518 4.434082,4.49678c0,4.609161 -2.760803,5.417358 -14.325439,4.193756c-6.002991,-0.635162 -12.756409,-1.13765 -15.007538,-1.116608c-3.689362,0.034439 -3.353027,0.384369 3.410797,3.548569c4.127106,1.93071 11.18396,4.880692 15.681946,6.555511c9.680908,3.604736 14.49469,8.739456 11.535706,12.30484c-2.680237,3.229477 -11.276123,1.743713 -24.045776,-4.156219c-5.707764,-2.637161 -10.598267,-4.794815 -10.867798,-4.794815c-0.269501,0 -0.490021,1.776154 -0.490021,3.946991c0,7.424347 -10.649231,7.795181 -23.781921,0.82814c-4.950562,-2.626328 -9.476868,-4.775131 -10.058441,-4.775131c-0.581604,0 -1.033234,1.688354 -1.003662,3.751877c0.048645,3.391724 -0.459747,3.793869 -5.295685,4.18924c-2.94223,0.240555 -7.970551,-0.563644 -11.174011,-1.787064c-5.606506,-2.141129 -5.929718,-2.119202 -8.634827,0.585907c-1.545685,1.54567 -2.810303,4.053543 -2.810303,5.573044c0,1.978271 -1.162201,2.995209 -4.092987,3.58136c-4.865387,0.973083 -4.872681,1.007751 -1.273438,6.062454c1.652679,2.320938 2.640778,5.513596 2.387573,7.714386c-0.390198,3.391632 -0.930328,3.739334 -5.585754,3.595764c-4.95697,-0.152878 -5.081024,-0.047913 -3.248627,2.748657c2.979919,4.547974 4.107513,11.559601 2.223969,13.829163c-1.297668,1.563599 -1.179199,2.962616 0.561493,6.630829c2.94931,6.21521 2.77951,9.802856 -0.625092,13.207458c-2.340698,2.340698 -3.818054,2.671448 -8.527008,1.908997l-5.695801,-0.922241l5.79837,5.987518c6.109222,6.308472 7.194122,10.433014 3.670959,13.956177c-1.927002,1.927002 -1.637817,2.341034 3.069733,4.395111c23.222839,10.132996 53.06012,26.000977 74.095459,39.405243c14.997375,9.556732 34.236664,21.129089 40.113129,24.127869c10.62323,5.421112 79.568604,29.734863 84.317688,29.734863c0.930664,0 5.700073,1.194305 10.598694,2.653992c4.898621,1.459717 15.561829,4.547089 23.695923,6.86087c15.287537,4.348602 28.18689,9.994598 28.18689,12.337311c0,2.352081 -7.444458,1.458221 -24.069458,-2.890106c-32.668213,-8.544464 -81.207642,-13.409637 -92.949402,-9.316467c-5.237488,1.825806 -6.277832,4.435303 -4.260559,10.686401c1.723938,5.341858 13.975464,24.650055 19.1474,30.175964c1.770203,1.891357 7.516174,8.304199 12.76886,14.250763c5.252625,5.946594 20.299622,22.203552 33.437805,36.126556c26.272949,27.842529 31.033752,33.697876 29.028809,35.702881c-2.815552,2.815552 -8.61554,-1.923584 -27.142883,-22.178345c-45.90802,-50.188324 -85.934509,-86.038605 -123.707489,-110.800293c-6.589905,-4.319946 -14.552704,-8.761566 -17.69516,-9.87027c-8.170471,-2.882721 -26.978149,-5.973206 -41.268036,-6.781158c-48.757324,-2.756805 -74.238953,-6.279266 -96.803284,-13.381683c-7.362091,-2.317291 -8.880096,-2.041931 -6.245178,1.132935c0.989868,1.192719 1.348389,3.506805 0.850586,5.490234c-1.035187,4.124481 -4.590424,4.426331 -16.278168,1.38205c-4.32135,-1.12558 -8.105469,-2.046478 -8.409119,-2.046478c-0.30368,0 0.468323,1.778046 1.715546,3.951233c1.976501,3.443817 2.017212,4.253082 0.317078,6.301605c-1.57901,1.902588 -3.387604,2.203796 -9.493835,1.581085c-4.148773,-0.423096 -9.078125,-1.115875 -10.954071,-1.53949c-1.875916,-0.423615 -5.866577,-1.100677 -8.868103,-1.504547l-5.457275,-0.734344l5.457275,2.956207c8.020233,4.344513 10.232452,6.707825 10.232452,10.931427c0,5.352112 -3.312775,8.07193 -9.831726,8.07193l-5.543823,0l3.591278,2.82489c4.888733,3.84549 2.83728,7.554962 -5.31311,9.607239c-6.783478,1.70813 -6.711578,1.626953 -4.532227,5.116669c2.140137,3.42688 0.410828,9.360046 -3.048065,10.457855l-2.842133,0.902069l3.032562,3.228027c2.384308,2.537964 2.865692,4.256287 2.251953,8.038361c-0.717316,4.420258 -0.28833,5.213776 5.289246,9.78421c7.087006,5.807251 9.064056,10.934143 5.282715,13.699097c-1.500092,1.096893 -1.994324,2.282471 -1.224426,2.937134c0.710052,0.603821 5.029938,4.260834 9.599701,8.126709c4.598328,3.889984 9.777069,9.83197 11.596771,13.305847c3.061157,5.843903 3.127625,6.396088 0.963043,8.003632c-2.093964,1.555115 -1.517883,2.52533 5.79837,9.765259c4.467834,4.421204 8.123352,8.750061 8.123352,9.619629c0,0.869568 0.920929,2.345398 2.046478,3.27948c1.999359,1.659363 2.895569,6.821655 1.184296,6.821655c-0.474213,0 -3.083496,-1.331177 -5.79837,-2.958191l-4.936188,-2.95813l4.092987,4.603821c2.251129,2.532104 7.930847,8.621338 12.621582,13.531677c5.670563,5.935974 8.813995,10.447876 9.380157,13.463806c1.147827,6.114441 -0.966827,8.122559 -5.933929,5.63501c-2.083893,-1.04364 -4.288544,-2.134888 -4.899231,-2.42511c-0.610657,-0.2901 1.231171,2.582764 4.092987,6.384338c8.340302,11.078979 12.256409,23.388672 7.440674,23.388672c-0.692474,0 -6.343048,-4.294189 -12.556824,-9.542542c-6.213776,-5.248413 -11.576691,-9.263672 -11.917603,-8.922729c-0.778229,0.778198 10.060577,13.811523 13.47464,16.20282c4.562012,3.195374 10.808868,12.118958 10.808868,15.440369c0,1.788879 1.573364,5.629944 3.496338,8.535767c2.653839,4.010254 3.393524,6.666077 3.069702,11.021973l-0.426575,5.738647l-13.023163,-9.345825zm-194.516632,-385.967178c1.104233,-2.877563 -4.448196,-6.255234 -7.552078,-4.594101c-3.28157,1.756256 -3.180695,3.360992 0.367569,5.846283c3.161118,2.214142 6.047409,1.71109 7.184509,-1.252182zm-23.713013,-3.228027c0,-2.441498 -25.274857,-20.31723 -26.704941,-18.887161c-0.407906,0.407913 4.553429,5.105576 11.0252,10.439255c10.888496,8.973724 15.679741,11.555145 15.679741,8.447906zm-35.629166,-44.309052c3.868225,-2.14415 2.304123,-3.589005 -2.82399,-2.608719c-2.409294,0.460571 -3.399101,1.344193 -2.915977,2.60318c0.889053,2.316833 1.568993,2.31749 5.739967,0.005539z"/>
   </g>
  </symbol>
 </defs>
 <g>
  <title>Layer 1</title>
  <rect fill="#ffffff" stroke="#000000" stroke-width="5" x="-51.959991" y="67.798004" width="0" height="1" id="svg_2" transform="rotate(6.87811)"/>
  <use x="439.300789" y="172.595891" transform="rotate(17.0928, 120.238, 94.3562) matrix(0.15108, 0, 0, 0.157038, 32.3538, 34.6478)" xlink:href="#svg_6" id="svg_7"/>
  <use x="1552.747559" y="708.647694" transform="matrix(0.138385, 0, 0, 0.11182, 82.8106, 114.313)" xlink:href="#svg_17" id="svg_18"/>
  <use x="2097.939483" y="1262.380878" transform="rotate(-9.61916, 230.048, 143.553) matrix(0.0592162, 0, 0, 0.0842465, 83.868, 4.43784)" xlink:href="#svg_23" id="svg_24"/>
 </g>
</svg>