<?xml version="1.0"?><svg width="640" height="480" xmlns="http://www.w3.org/2000/svg">
 <!-- Created with SVG-edit - http://svg-edit.googlecode.com/ -->
 <title>rainbow</title>
 <g>
  <title>Layer 1</title>

  <path id="svg_1" d="m1.99999,477c-2.99999,-471 638.00001,-475 636.00001,0l-28,0c0.333374,-435.999989 -578.66667,-436.999981 -579.00001,0l-29,0z" stroke-linecap="null" stroke-linejoin="null" stroke-dasharray="null" stroke-width="2" stroke="#000000" fill="#7f00ff"/>
  <path id="svg_2" d="m29,477c0.33333,-436.66666 580.666687,-436.666649 581,0l-31,0c1.666626,-397.666718 -518,-397.333382 -519,0l-31,0z" stroke-linecap="null" stroke-linejoin="null" stroke-dasharray="null" stroke-width="2" stroke="#000000" fill="#0000ff"/>
  <path id="svg_3" d="m60.333328,477.333313c0.000023,-397 520.33342,-398.333305 518.666672,-0.666656l-29,0c0.333557,-356.999985 -459.333359,-356.666733 -459,0l-30.666672,0.666656z" stroke-linecap="null" stroke-linejoin="null" stroke-dasharray="null" stroke-width="2" stroke="#000000" fill="#00ffff"/>
  <path id="svg_4" d="m92,476.666504c-1.111107,-358.000053 459.111511,-358.000153 458.000244,0.000031l-28.667358,0.666718c-1.555054,-317.333328 -400.443985,-315.333282 -399.332863,0.000031l-30.000023,-0.666779z" stroke-linecap="null" stroke-linejoin="null" stroke-dasharray="null" stroke-width="2" stroke="#000000" fill="#00ff00"/>
  <path id="svg_5" d="m121.999992,477.333313c-1.333359,-316.000061 398.666328,-315.333389 399.333076,-0.000031l-31.99939,-0.000183c0.666138,-277.333237 -338.666641,-273.999985 -339.333862,0.000031l-27.999825,0.000183z" stroke-linecap="null" stroke-linejoin="null" stroke-dasharray="null" stroke-width="2" stroke="#000000" fill="#ffff00"/>
  <path id="svg_6" d="m150.000031,477.333405c1.110931,-277.333252 339.555603,-275.333588 339.333191,-0.000244l-29.333221,0.000031c0.222656,-235.332947 -278.888962,-237.333542 -280.000015,-0.000061l-29.999954,0.000275z" stroke-linecap="null" stroke-linejoin="null" stroke-dasharray="null" stroke-width="2" stroke="#000000" fill="#ff7f00"/>
  <path id="svg_7" d="m179.333359,477.333282c1.111023,-237.333206 280.22258,-236.666382 280.666794,0.000183l-32,-0.000061c1.555298,-198.000183 -216.888885,-199.999878 -216.000198,0.666504l-32.666595,-0.666626z" stroke-linecap="null" stroke-linejoin="null" stroke-dasharray="null" stroke-width="2" stroke="#000000" fill="#ff0000"/>
  <path transform="rotate(-0.109957 107.592 486.802)" id="svg_8" d="m-29.333267,491.333344c-40.666725,-15.510132 -12.999161,-86.34314 30.751312,-70.799286c-18.916183,-57.789154 61.583786,-76.53421 103.248627,-29.867371c53.664734,-44.666748 107.498169,-11.255066 103.248627,29.867371c47.750351,-5.544189 73.417953,39.955872 42.751389,72.132599c35.999939,23.510223 -6.334305,77.676727 -42.751389,72.132599c2.249542,37.789124 -64.917114,61.200684 -103.248627,29.867432c-34.998123,26.666565 -84.164795,-4.744995 -85.915253,-41.867371c-47.083771,16.877686 -68.751434,-15.955994 -48.084686,-61.465973z" stroke-linecap="null" stroke-linejoin="null" stroke-dasharray="null" stroke-width="2" stroke="#000000" fill="#ffffff"/>
  <path id="svg_10" transform="rotate(-0.109957 536.908 481.46)" d="m399.982422,485.991333c-40.666718,-15.510162 -12.999146,-86.34317 30.751343,-70.799316c-18.916199,-57.789185 61.583771,-76.534241 103.248596,-29.867371c53.664734,-44.666779 107.498169,-11.255066 103.248657,29.867371c47.750366,-5.544189 73.417908,39.955872 42.751343,72.132629c36,23.510193 -6.33429,77.676697 -42.751343,72.132568c2.249512,37.789124 -64.917114,61.200623 -103.248657,29.867432c-34.998138,26.666565 -84.164764,-4.744995 -85.915222,-41.867371c-47.083771,16.877686 -68.751465,-15.955994 -48.084717,-61.465942z" stroke-linecap="null" stroke-linejoin="null" stroke-dasharray="null" stroke-width="2" stroke="#000000" fill="#ffffff"/>
 </g>
</svg>