<?xml version="1.0"?><svg width="1104.973" height="747.64148" xmlns="http://www.w3.org/2000/svg">
 <defs>
  <linearGradient id="svg_1">
   <stop offset="0" stop-opacity="0.996094" stop-color="#8193ef"/>
   <stop offset="1" stop-opacity="0.996094" stop-color="#182fe0"/>
  </linearGradient>
 </defs>
 <metadata id="metadata7">image/svg+xmlRedPlane Outline20070128Klaus KellnerKlaus KellnerKlaus KellnerPlane, Clipart, OutlineKlaus Kellner</metadata>
 <g>
  <title>Layer 1</title>
  <path transform="matrix(1 0 0 1 0 0) matrix(1 0 0 1 0 0) matrix(1 0 0 1 0 0)" fill="url(#svg_1)" fill-rule="evenodd" stroke="#000000" stroke-width="4" stroke-linecap="round" stroke-linejoin="round" stroke-miterlimit="4" id="path2175" d="m112.800034,243.20285c-124.877502,13.419434 26.64856,79.780609 238.515823,97.08844c17.159912,1.401825 35.954956,2.681366 55.97525,3.855743c58.526825,-39.039886 128.799225,-59.244781 188.801971,-94.70105c-172.097961,-8.687531 -379.87709,-10.893829 -454.57338,-8.182312c-10.846283,0.393738 -20.394501,1.044556 -28.719666,1.939178z"/>
  <path style="vector-effect: non-scaling-stroke; " transform="matrix(1 0 0 1 0 0) matrix(1 0 0 1 0 0) matrix(1 0 0 1 0 0) matrix(1 0 0 1 0 0) matrix(1 0 0 1 0 0) matrix(1 0 0 1 0 0) translate(290.756 553.863) scale(1 1.00551) translate(-290.756 -553.863)" fill="url(#svg_1)" fill-rule="evenodd" stroke="#000000" stroke-width="4" stroke-linecap="round" stroke-linejoin="round" stroke-miterlimit="4" id="rect2160" d="m551.083069,255.274384c-58.912292,13.246124 -110.817261,35.735443 -126.857361,66.598907c-25.131104,32.979584 -83.058899,48.65448 -86.517395,86.200378c-4.012238,43.556946 -86.921463,54.993103 -22.56134,125.535645c43.890137,48.106262 221.474915,-2.116882 262.547363,-21.076172c102.61554,-47.367981 87.201599,-111.019897 198.536621,-161.489532c19.805237,-8.977997 111.305237,-107.426605 104.910583,-128.80127c-22.898499,-76.539597 -133.408447,8.824188 -330.058472,33.032043z"/>
  <path fill="url(#svg_1)" fill-rule="evenodd" stroke="#000000" stroke-width="4" stroke-linecap="round" stroke-linejoin="round" stroke-miterlimit="4" d="m297.097473,314.489716c8.30719,14.451019 -72.608292,64.940308 -106.819443,104.632996c-31.416473,36.450104 -69.044922,45.045807 -88.395172,18.532745c-35.102982,-48.096802 172.416641,-158.276947 195.214615,-123.165741" id="path2173"/>
  <path fill="url(#svg_1)" fill-rule="evenodd" stroke="#000000" stroke-width="4" stroke-linecap="round" stroke-linejoin="round" stroke-miterlimit="4" d="m223.211868,346.842285c-12.087921,18.296875 -40.658966,32.065857 -78.710999,43.837219c-7.584473,-52.905884 -38.67041,-100.040009 27.548553,-129.10968c24.110687,-10.57309 42.731201,40.6008 51.162445,85.272461z" id="path2176"/>
  <path fill="url(#svg_1)" fill-rule="evenodd" stroke="#000000" stroke-width="4" stroke-linecap="round" stroke-linejoin="round" stroke-miterlimit="4" id="path2168" d="m1047.141602,361.847504c8.595703,15.24411 -73.798645,70.287201 -109.793152,109.952362c-33.793457,37.239746 -71.02417,47.277527 -91.028442,19.299011c-36.28894,-50.755188 177.24353,-166.296051 200.821594,-129.251373"/>
  <path fill="url(#svg_1)" fill-rule="evenodd" stroke="#000000" stroke-width="4" stroke-linecap="round" stroke-linejoin="round" stroke-miterlimit="4" id="path2171" d="m971.097839,395.741364c-12.408081,19.243774 -41.810547,33.675995 -80.98645,45.979889c-7.948486,-55.751526 -40.096252,-105.482452 28.056885,-135.937469c24.814819,-11.076843 44.129517,42.878052 52.929565,89.957581z"/>
  <path opacity="0.5" transform="matrix(1 0 0 1 0 0) matrix(1 0 0 1 0 0) matrix(1 0 0 1 0 0) matrix(1 0 0 1 0 0) matrix(1 0 0 1 0 0) matrix(1 0 0 1 0 0)" fill="#ffffff" fill-rule="evenodd" stroke="#000000" stroke-width="9.373968" stroke-linecap="round" stroke-linejoin="round" stroke-miterlimit="4" d="m593.684265,364.230682a10.21244,10.883727 0 1 1 -20.424866,-12.883606a10.21244,10.883727 0 1 1 20.424866,12.883606z" id="path2187"/>
  <path fill="url(#svg_1)" fill-rule="evenodd" stroke="#000000" stroke-width="4" stroke-linecap="round" stroke-linejoin="round" stroke-miterlimit="4" id="rect2177" d="m610.600159,257.7565c-71.432251,3.263641 -146.037048,46.601563 -160.007874,88.676117c247.674866,11.52774 627.203003,6.417053 594.894531,-31.330383c-25.33551,-29.600861 -223.661194,-45.3349 -434.886658,-57.345734z"/>
  <path opacity="0.75" fill="#ffffaa" fill-rule="evenodd" stroke="#000000" stroke-width="4" stroke-linecap="round" stroke-linejoin="round" stroke-miterlimit="4" id="rect2178" d="m349.605408,385.294128c16.186279,12.27771 37.85022,17.243866 91.09137,8.439911l-2.989197,24.980225c-27.758179,9.698975 -85.071533,13.040375 -98.871033,-2.346832c1.269958,-10.595306 1.919983,-21.254089 10.76886,-31.073303z"/>
  <path style="vector-effect: non-scaling-stroke; " opacity="0.5" transform="matrix(1 0 0 1 0 0) matrix(1 0 0 1 0 0) matrix(1 0 0 1 0 0) matrix(1 0 0 1 0 0) matrix(1 0 0 1 0 0) matrix(1 0 0 1 0 0) matrix(1 0 0 1 0 0) matrix(1 0 0 1 0 0) matrix(1 0 0 1 0 0) matrix(1 0 0 1 0 0) matrix(1 0 0 1 0 0) translate(0 1) matrix(1 0 0 1 0 0) matrix(1 0 0 1 0 0) matrix(1 0 0 1 0 0) matrix(1 0 0 1 0 0) matrix(1 0 0 1 0 0) translate(476.002 385.987) scale(1 1.06875) translate(-476.002 -385.987) translate(476.002 385.987) scale(1 0.862498) translate(-476.002 -385.987) translate(498.023 385.987) scale(0.95459 1) translate(-498.023 -385.987)" fill="#ffffff" fill-rule="evenodd" stroke="#000000" stroke-width="8.539385" stroke-linecap="round" stroke-linejoin="round" stroke-miterlimit="4" d="m498.023102,400.532013a11.010762,12.179028 0 1 1 -22.021545,-14.545197a11.010762,12.179028 0 1 1 22.021545,14.545197z" id="path2181"/>
  <path fill="url(#svg_1)" fill-rule="evenodd" stroke="#000000" stroke-width="4" stroke-linecap="round" stroke-linejoin="round" stroke-miterlimit="4" d="m851.019165,198.020386c-18.054199,14.082916 -61.233826,25.558197 -102.276245,24.271729c10.858582,-55.258484 49.049988,-137.587219 81.930481,-126.643402c25.784241,8.581909 27.543823,55.020752 20.345764,102.371674z" id="path2183"/>
  <path fill="url(#svg_1)" fill-rule="evenodd" stroke="#000000" stroke-width="4" stroke-linecap="round" stroke-linejoin="round" stroke-miterlimit="4" d="m1026.787476,87.649414c10.052856,22.551422 -185.876343,36.857697 -275.25354,32.173645c-89.377197,-4.684067 -151.024536,-47.641907 -82.255005,-50.909897c68.76947,-3.268005 346.320618,-6.362595 357.508545,18.736252z" id="path2180"/>
  <path opacity="0.5" fill="#ffffff" fill-rule="evenodd" stroke="#000000" stroke-width="9.373968" stroke-linecap="round" stroke-linejoin="round" stroke-miterlimit="4" id="path2185" d="m546.192383,385.013763a10.21244,10.883727 0 1 1 -20.424866,-12.883606a10.21244,10.883727 0 1 1 20.424866,12.883606z"/>
  <path fill="url(#svg_1)" fill-rule="evenodd" stroke="#000000" stroke-width="3.046151" stroke-linecap="round" stroke-linejoin="round" stroke-miterlimit="4" d="m341.787842,485.466492a21.794411,20.8664 0 1 1 -43.588837,13.822693a21.794411,20.8664 0 1 1 43.588837,-13.822693z" id="path2189"/>
  <path fill="url(#svg_1)" fill-rule="evenodd" stroke="#000000" stroke-width="5.466794" stroke-linecap="round" stroke-linejoin="round" stroke-miterlimit="4" id="path2191" d="m327.393188,485.31546a13.481427,10.440935 0 1 1 -26.96286,7.507355a13.481427,10.440935 0 1 1 26.96286,-7.507355z"/>
  <path fill="url(#svg_1)" fill-rule="evenodd" stroke="#000000" stroke-width="4" stroke-linecap="round" stroke-linejoin="round" stroke-miterlimit="4" id="path3149" d="m383.237427,255.369049c-0.945496,15.145111 -50.345642,31.60144 -85.371399,67.087524c-33.502808,33.943115 -59.003555,3.628906 -59.118546,-19.661255c-0.114868,-23.290161 17.030518,-47.207092 61.150833,-60.041748c44.120239,-12.834625 84.790344,-10.629608 83.339111,12.615479z"/>
  <path transform="translate(-1 0)" opacity="0.5" fill="#ffffff" fill-rule="evenodd" stroke="#000000" stroke-width="2" stroke-linecap="round" stroke-linejoin="round" stroke-miterlimit="4" id="path4129"/>
  <path fill="url(#svg_1)" fill-rule="evenodd" stroke="#000000" stroke-width="1.989101" stroke-linecap="round" stroke-linejoin="round" stroke-miterlimit="4" d="m353.56781,331.373779a83.641426,95.799713 0 0 1 -18.454468,45.135773l-65.186981,-65.767059l83.641449,20.631287z" id="path4131"/>
  <path fill="url(#svg_1)" fill-rule="evenodd" stroke="#000000" stroke-width="1.989101" stroke-linecap="round" stroke-linejoin="round" stroke-miterlimit="4" id="path4133" d="m185.141098,288.18512a83.641426,95.799713 0 0 1 18.454453,-45.135788l65.186981,65.767075l-83.641434,-20.631287z"/>
  <path fill="url(#svg_1)" fill-rule="evenodd" stroke="#000000" stroke-width="4" stroke-linecap="round" stroke-linejoin="round" stroke-miterlimit="4" id="path4135" d="m286.303711,314.782196c-1.566956,10.354401 -10.264343,15.365509 -19.266968,12.90329c-13.164902,-3.600525 -16.504135,-8.715118 -13.538742,-22.797668c2.020996,-9.575226 10.226669,-15.133209 19.266983,-12.90329c9.040314,2.229889 15.105682,12.443237 13.538727,22.797668z"/>
  <path fill="url(#svg_1)" fill-rule="evenodd" stroke="#000000" stroke-width="4" stroke-linecap="round" stroke-linejoin="round" stroke-miterlimit="4" d="m777.700256,282.104431c-0.979248,15.5 -51.763367,32.36557 -87.782104,68.699158c-34.452637,34.753784 -60.648926,3.742645 -60.755676,-20.092499c-0.10675,-23.835114 17.527832,-48.320099 62.883423,-61.476654c45.35553,-13.156525 87.157349,-10.919739 85.654358,12.869995z" id="path4148"/>
  <path fill="url(#svg_1)" fill-rule="evenodd" stroke="#000000" stroke-width="1.939403" stroke-linecap="round" stroke-linejoin="round" stroke-miterlimit="4" id="path4152" d="m747.167114,359.902283a85.961189,98.04866 0 0 1 -18.99054,46.20105l-66.970703,-67.274292l85.961243,21.073242z"/>
  <path fill="url(#svg_1)" fill-rule="evenodd" stroke="#000000" stroke-width="1.939403" stroke-linecap="round" stroke-linejoin="round" stroke-miterlimit="4" d="m574.069946,315.785187a85.961189,98.04866 0 0 1 18.99054,-46.20105l66.970642,67.274292l-85.961182,-21.073242z" id="path4154"/>
  <path fill="url(#svg_1)" fill-rule="evenodd" stroke="#000000" stroke-width="4" stroke-linecap="round" stroke-linejoin="round" stroke-miterlimit="4" d="m678.037537,342.955261c-1.615662,10.597473 -10.5578,15.730072 -19.809998,13.214661c-13.529785,-3.678375 -16.959534,-8.911041 -13.904724,-23.324554c2.08197,-9.800293 10.518921,-15.49234 19.809998,-13.214691c9.291016,2.277679 15.520325,12.727112 13.904724,23.324585z" id="path4156"/>
  <path id="svg_2" opacity="0.5" fill="#bfbfbf" fill-rule="evenodd" stroke="#000000" stroke-width="2" stroke-linecap="round" stroke-linejoin="round" stroke-miterlimit="4"/>
  <path id="svg_3" opacity="0.5" fill="#bfbfbf" fill-opacity="0.588235" fill-rule="evenodd" stroke="#000000" stroke-width="2" stroke-linecap="round" stroke-linejoin="round" stroke-miterlimit="4" d="m355.167053,330.902283a85.163422,98.04866 0 1 1 -170.326843,-42.735901a85.163422,98.04866 0 1 1 170.326843,42.735901z"/>
  <path transform="matrix(1 0 0 1 0 0) translate(-172 -109) matrix(1 0 0 1 0 0) translate(172 110) matrix(1 0 0 1 0 0)" opacity="0.5" fill="#bfbfbf" fill-opacity="0.588235" fill-rule="evenodd" stroke="#000000" stroke-width="2" stroke-linecap="round" stroke-linejoin="round" stroke-miterlimit="4" d="m749.167053,358.902283a87.663429,102.637245 0 1 1 -175.326843,-44.735901a87.663429,102.637245 0 1 1 175.326843,44.735901z" id="path4150"/>
 </g>
</svg>