<?xml version="1.0" encoding="UTF-8"?>
<!DOCTYPE svg PUBLIC "-//W3C//DTD SVG 1.1//EN" "http://www.w3.org/Graphics/SVG/1.1/DTD/svg11.dtd">
<!-- Creator: CorelDRAW -->
<svg xmlns="http://www.w3.org/2000/svg" xml:space="preserve" width="78.4404mm" height="66.2703mm" style="shape-rendering:geometricPrecision; text-rendering:geometricPrecision; image-rendering:optimizeQuality; fill-rule:evenodd; clip-rule:evenodd"
viewBox="0 0 7368.74 6225.47"
 xmlns:xlink="http://www.w3.org/1999/xlink">
 <defs>
  <style type="text/css">
   <![CDATA[
    .str0 {stroke:#373435;stroke-width:93.9406}
    .str2 {stroke:#FFF212;stroke-width:93.9406}
    .str1 {stroke:#373435;stroke-width:140.911}
    .fil1 {fill:none}
    .fil0 {fill:url(#id0)}
   ]]>
  </style>
  <radialGradient id="id0" gradientUnits="userSpaceOnUse" cx="3331.76" cy="2240.92" r="1184.51" fx="3331.76" fy="2240.92">
   <stop offset="0" style="stop-color:#FEFEFE"/>
   <stop offset="1" style="stop-color:#FFF212"/>
  </radialGradient>
 </defs>
 <g id="Camada_x0020_1">
  <metadata id="CorelCorpID_0Corel-Layer"/>
  <g id="_193488016">
   <path id="_192540440" class="fil0 str0" d="M6012.53 3682.56c-62.7147,681.238 -500.544,1079.56 -1073.75,1232.82 -1652.49,441.84 -3120.21,-431.742 -3320.64,-1570.85 -228.961,-1301.26 1086.34,-2503.69 2346.33,-2207.13 1330.26,313.085 2162.75,1299.38 2048.06,2545.16z"/>
   <path id="_192541208" class="fil1 str1" d="M5276.81 3026.38c-853.14,1474.22 -2828.3,970.482 -2823.54,-914.662"/>
   <path id="_189531552" class="fil1 str0" d="M4700.17 2350.33c-12.7571,-218.572 -151.949,-304.734 -417.566,-258.496"/>
   <path id="_192536000" class="fil1 str0" d="M3805.38 2071.94c-69.4785,-203.24 -235.18,-276.148 -497.105,-218.722"/>
   <line id="_192541976" class="fil1 str0" x1="861.82" y1="3599.02" x2="26.6885" y2= "4175.66" />
   <line id="_192540632" class="fil1 str0" x1="1100.43" y1="2604.82" x2="265.298" y2= "2604.82" />
   <line id="_192540272" class="fil1 str0" x1="1378.81" y1="1670.26" x2="404.489" y2= "1451.54" />
   <line id="_193720056" class="fil1 str0" x1="2313.36" y1="1033.98" x2="1875.91" y2= "437.453" />
   <line id="_192538928" class="fil1 str0" x1="3406.99" y1="835.132" x2="3406.99" y2= "0" />
   <line id="_192543344" class="fil1 str0" x1="4500.62" y1="1053.85" x2="5216.45" y2= "298.261" />
   <line id="_193715880" class="fil1 str0" x1="5673.78" y1="1570.85" x2="6369.73" y2= "1113.51" />
   <line id="_193710528" class="fil1 str0" x1="6151" y1="2386.09" x2="7184.06" y2= "2326.44" />
   <line id="_193720464" class="fil1 str0" x1="6449.26" y1="3539.37" x2="7184.06" y2= "3797.87" />
   <line id="_193717176" class="fil1 str0" x1="5733.43" y1="4792.07" x2="6449.26" y2= "5468.13" />
   <line id="_193719048" class="fil1 str0" x1="4997.72" y1="5388.59" x2="5097.14" y2= "6144.19" />
   <line id="_193720200" class="fil1 str0" x1="3804.67" y1="5547.67" x2="3745.02" y2= "6144.19" />
   <line id="_192543296" class="fil1 str0" x1="2671.28" y1="5189.76" x2="2452.55" y2= "5845.93" />
   <line id="_192540368" class="fil1 str0" x1="1657.19" y1="4613.11" x2="1100.43" y2= "5249.41" />
   <line id="_192541160" class="fil1 str2" x1="1030.91" y1="3674.18" x2="195.782" y2= "4250.81" />
   <line id="_192544088" class="fil1 str2" x1="1269.52" y1="2679.97" x2="434.391" y2= "2679.97" />
   <line id="_192540056" class="fil1 str2" x1="1547.91" y1="1745.42" x2="573.583" y2= "1526.69" />
   <line id="_192541928" class="fil1 str2" x1="2482.46" y1="1109.13" x2="2045" y2= "512.606" />
   <line id="_192539792" class="fil1 str2" x1="3576.08" y1="910.284" x2="3576.08" y2= "75.1525" />
   <line id="_192540560" class="fil1 str2" x1="4669.71" y1="1129.01" x2="5385.54" y2= "373.414" />
   <line id="_192536312" class="fil1 str2" x1="5842.87" y1="1646" x2="6538.82" y2= "1188.66" />
   <line id="_192538352" class="fil1 str2" x1="6320.09" y1="2461.24" x2="7353.15" y2= "2401.59" />
   <line id="_192542528" class="fil1 str2" x1="6618.35" y1="3614.52" x2="7353.15" y2= "3873.02" />
   <line id="_192541232" class="fil1 str2" x1="5902.52" y1="4867.22" x2="6618.35" y2= "5543.28" />
   <line id="_192541616" class="fil1 str2" x1="5166.81" y1="5463.74" x2="5266.23" y2= "6219.35" />
   <line id="_192543992" class="fil1 str2" x1="3973.76" y1="5622.82" x2="3914.11" y2= "6219.35" />
   <line id="_192543728" class="fil1 str2" x1="2840.37" y1="5264.91" x2="2621.65" y2= "5921.09" />
   <line id="_193720440" class="fil1 str2" x1="1826.28" y1="4688.27" x2="1269.52" y2= "5324.56" />
  </g>
 </g>
</svg>
